<svg width="32" height="32" viewBox="0 0 32 32" fill="none" xmlns="http://www.w3.org/2000/svg">
<path d="M27.312 4.68458C21.0627 -1.56285 10.932 -1.56135 4.68458 4.68802C-1.56285 10.9374 -1.56135 21.068 4.68802 27.3154C10.9374 33.5629 21.068 33.5614 27.3154 27.312C30.3158 24.3107 32.0009 20.2404 32 15.9966C31.9991 11.7534 30.3128 7.68445 27.312 4.68458ZM24.2314 22.2878C24.2308 22.2885 24.2301 22.2892 24.2293 22.2899V22.2846L23.4186 23.0899C22.3702 24.1516 20.8433 24.5884 19.3919 24.2419C17.9298 23.8506 16.5398 23.2276 15.2746 22.3966C14.0993 21.6454 13.01 20.7673 12.0266 19.7779C11.1218 18.8797 10.309 17.8935 9.59995 16.8339C8.82446 15.6938 8.21064 14.4518 7.77596 13.1433C7.27764 11.606 7.69058 9.9192 8.84264 8.78595L9.79195 7.83664C10.0559 7.57151 10.4848 7.57057 10.7498 7.83451C10.7505 7.8352 10.7513 7.83589 10.752 7.83664L13.7493 10.8339C14.0144 11.0979 14.0153 11.5268 13.7514 11.7918C13.7507 11.7925 13.75 11.7932 13.7493 11.7939L11.9893 13.5539C11.4843 14.0534 11.4208 14.8472 11.84 15.4206C12.4765 16.2943 13.181 17.1163 13.9466 17.8793C14.8003 18.7367 15.7284 19.5166 16.7199 20.21C17.2929 20.6096 18.0696 20.5422 18.5653 20.05L20.2666 18.322C20.5305 18.0569 20.9594 18.0559 21.2244 18.3199C21.2251 18.3206 21.2258 18.3212 21.2266 18.322L24.2293 21.33C24.4944 21.5939 24.4954 22.0227 24.2314 22.2878Z" fill="#F0F0F0"/>
</svg>
