<svg width="28" height="28" viewBox="0 0 28 28" fill="none" xmlns="http://www.w3.org/2000/svg">
<path d="M14 0C6.26828 0 0 6.26828 0 14C0 21.7317 6.26828 28 14 28C21.7317 28 28 21.7317 28 14C28 6.26828 21.7317 0 14 0ZM7.97836 8.59633H20.0216C20.4118 8.59563 20.7892 8.7354 21.0848 8.99008L14.0224 13.2891L7.4375 8.68766C7.61133 8.62687 7.79421 8.59599 7.97836 8.59633ZM21.6562 17.7691C21.6562 18.2026 21.484 18.6184 21.1775 18.9249C20.8709 19.2315 20.4552 19.4037 20.0216 19.4037H7.97836C7.54483 19.4037 7.12906 19.2315 6.82252 18.9249C6.51597 18.6184 6.34375 18.2026 6.34375 17.7691V10.2309C6.34336 9.97788 6.40217 9.72823 6.51547 9.50195L13.6577 14.4922C13.7527 14.5587 13.8652 14.596 13.9811 14.5996C14.0971 14.6032 14.2116 14.5729 14.3106 14.5124L21.6459 10.0505C21.6527 10.1109 21.6561 10.1717 21.6562 10.2326V17.7691Z" fill="#F0F0F0"/>
</svg>
