<svg width="18" height="20" viewBox="0 0 18 20" fill="none" xmlns="http://www.w3.org/2000/svg">
<path d="M17.7626 5.01562C16.6212 5.01562 15.5681 4.6375 14.7224 3.99961C13.7524 3.26836 13.0556 2.1957 12.8095 0.959375C12.7485 0.653906 12.7157 0.338672 12.7126 0.015625H9.45204V8.925L9.44814 13.8051C9.44814 15.1098 8.59853 16.216 7.42079 16.6051C7.079 16.718 6.70986 16.7715 6.32548 16.7504C5.83486 16.7234 5.37509 16.5754 4.97548 16.3363C4.12509 15.8277 3.54853 14.9051 3.5329 13.8496C3.50829 12.2 4.84189 10.8551 6.49032 10.8551C6.81571 10.8551 7.12822 10.9082 7.42079 11.0047V8.56953V7.69414C7.1122 7.64844 6.79814 7.62461 6.48056 7.62461C4.67626 7.62461 2.98876 8.37461 1.78251 9.72578C0.870793 10.7469 0.323918 12.0496 0.239543 13.4156C0.128996 15.2102 0.785636 16.916 2.05907 18.1746C2.24618 18.3594 2.44267 18.5309 2.64814 18.6891C3.73993 19.5293 5.0747 19.9848 6.48056 19.9848C6.79814 19.9848 7.1122 19.9613 7.42079 19.9156C8.73407 19.7211 9.94579 19.1199 10.902 18.1746C12.077 17.0133 12.7263 15.4715 12.7333 13.8305L12.7165 6.54297C13.277 6.97539 13.8899 7.3332 14.5477 7.61094C15.5708 8.04258 16.6556 8.26133 17.772 8.26094V5.89336V5.01484C17.7727 5.01562 17.7634 5.01562 17.7626 5.01562Z" fill="#E50914"/>
</svg>
