<svg width="60" height="60" viewBox="0 0 60 60" fill="none" xmlns="http://www.w3.org/2000/svg">
<path d="M43.193 2.75049H16.807C9.02952 2.75049 2.72461 9.0554 2.72461 16.8329V43.2188C2.72461 50.9964 9.02952 57.3013 16.807 57.3013H43.193C50.9705 57.3013 57.2754 50.9964 57.2754 43.2188V16.8329C57.2754 9.0554 50.9705 2.75049 43.193 2.75049Z" fill="url(#paint0_linear_13_1481)"/>
<path d="M30 10.2104C26.5929 10.211 23.2461 11.1089 20.2963 12.8137C17.3464 14.5185 14.8976 16.9702 13.1961 19.922C11.4947 22.8738 10.6007 26.2217 10.6041 29.6287C10.6074 33.0358 11.508 36.3819 13.2152 39.3304L10.5785 49.4237L20.8383 46.7061C23.4379 48.0985 26.3207 48.8797 29.2676 48.9905C32.2145 49.1013 35.1479 48.5387 37.8447 47.3454C40.5415 46.1522 42.9307 44.3598 44.8307 42.1045C46.7307 39.8492 48.0914 37.1903 48.8094 34.3301C49.5274 31.4699 49.5838 28.4836 48.9743 25.5983C48.3648 22.713 47.1054 20.0046 45.292 17.6792C43.4785 15.3537 41.1586 13.4724 38.5088 12.1782C35.859 10.884 32.949 10.211 30 10.2104ZM41.407 41.0155C38.8025 43.6186 35.3864 45.253 31.7253 45.6475C28.0642 46.042 24.3782 45.173 21.2789 43.1847L15.3188 44.7655L16.8422 38.9436C15.0625 36.4356 14.0367 33.4711 13.8857 30.3994C13.7347 27.3278 14.4648 24.277 15.9899 21.6064C17.5151 18.9359 19.7718 16.7569 22.4941 15.3262C25.2164 13.8955 28.2909 13.2727 31.3554 13.5312C34.4198 13.7897 37.3466 14.9186 39.7908 16.7851C42.235 18.6515 44.0948 21.1777 45.1511 24.066C46.2074 26.9542 46.4162 30.0842 45.7529 33.0872C45.0895 36.0902 43.5817 38.841 41.407 41.0155Z" fill="white"/>
<path d="M39.7195 34.6874C39.7205 35.0063 39.6935 35.3247 39.6387 35.6389C39.5872 35.9575 39.5088 36.2711 39.4043 36.5764C39.1641 37.255 37.8516 38.0858 37.8516 38.0858C36.9188 38.7067 35.8044 38.9956 34.6875 38.9061C34.4256 38.8794 34.1654 38.8379 33.9082 38.7819C33.4723 38.6846 33.2602 38.6225 33.2602 38.6225C33.0492 38.5604 32.502 38.3882 32.502 38.3882C31.9547 38.2171 31.8316 38.1843 31.8316 38.1843C31.0004 37.9344 30.1948 37.606 29.4258 37.2034C27.6527 36.2401 25.7215 34.5139 25.7215 34.5139C24.5781 33.4974 23.5443 32.3639 22.6371 31.1319C22.1546 30.4107 21.7388 29.647 21.3949 28.8503C21.3481 28.7331 21.1172 28.2069 21.1172 28.2069C20.8828 27.6819 20.8008 27.4792 20.8008 27.4792C20.7164 27.2753 20.5664 26.8534 20.5664 26.8534C20.4808 26.6045 20.4108 26.3505 20.3566 26.0929C20.3135 25.8605 20.2846 25.6257 20.2699 25.3897C20.202 24.1569 20.8148 22.8597 20.8148 22.8597C21.4887 21.4651 22.1426 21.1464 22.1426 21.1464C22.435 21.0144 22.7366 20.9036 23.0449 20.8147C23.3501 20.7201 23.6643 20.6572 23.9824 20.6272C24.0777 20.6179 24.1738 20.6262 24.266 20.6518C24.5121 20.7186 25.0336 21.6304 25.0336 21.6304C25.1953 21.8765 25.4754 22.3335 25.4754 22.3335C25.7566 22.7882 25.9922 23.1538 25.9922 23.1538C26.2266 23.5229 26.4469 23.8464 26.4469 23.8464C26.4902 23.8979 26.7 24.1686 26.7 24.1686C26.8152 24.3143 26.9202 24.4678 27.0141 24.628C27.0785 24.7441 27.1184 24.8721 27.1313 25.0042C27.1453 25.2725 26.7867 25.6956 26.7867 25.6956C26.5431 25.9757 26.2791 26.2373 25.9969 26.4784C25.7183 26.7147 25.4541 26.9675 25.2059 27.2354C24.8449 27.6315 24.8543 27.8729 24.8543 27.8729C24.8684 27.9755 24.8964 28.0756 24.9375 28.1706C25.0148 28.3475 25.0676 28.439 25.0676 28.439C25.1191 28.5292 25.2727 28.7495 25.2727 28.7495C25.4262 28.9698 25.4402 28.9956 25.4402 28.9956C26.1477 30.1013 26.9897 31.1149 27.9469 32.0132C29.3332 33.253 31.2281 34.1682 31.2281 34.1682C31.2562 34.18 31.4918 34.3077 31.4918 34.3077C31.7262 34.4366 31.8234 34.4776 31.8234 34.4776C31.9195 34.5198 32.1047 34.5761 32.1047 34.5761C32.2028 34.6095 32.3057 34.6265 32.4094 34.6264C32.6508 34.6136 33.0047 34.2104 33.0047 34.2104C33.2427 33.9335 33.4642 33.6427 33.668 33.3397C33.8766 33.0331 34.1072 32.7421 34.3582 32.469C34.7391 32.0647 35.0074 32.0495 35.0074 32.0495C35.1398 32.0484 35.2712 32.0731 35.3941 32.1222C35.5628 32.1995 35.7268 32.2867 35.8852 32.3835C36.1781 32.5616 36.2367 32.5991 36.2367 32.5991C36.5883 32.7819 36.9773 32.9741 36.9773 32.9741C37.3711 33.1675 37.8539 33.396 37.8539 33.396C38.3367 33.6245 38.5992 33.7569 38.5992 33.7569C39.5637 34.1741 39.6539 34.4108 39.6539 34.4108C39.6892 34.4993 39.7113 34.5925 39.7195 34.6874Z" fill="white"/>
<defs>
<linearGradient id="paint0_linear_13_1481" x1="30" y1="57.3013" x2="30" y2="2.75049" gradientUnits="userSpaceOnUse">
<stop stop-color="#00D02D"/>
<stop offset="0.25" stop-color="#10D93A"/>
<stop offset="0.75" stop-color="#3AF15D"/>
<stop offset="1" stop-color="#51FE71"/>
</linearGradient>
</defs>
</svg>
