<svg width="20" height="20" viewBox="0 0 20 20" fill="none" xmlns="http://www.w3.org/2000/svg">
<g clip-path="url(#clip0_3698_4379)">
<path d="M10 0C14.714 0 17.0707 0.000377656 18.5352 1.46484C19.9996 2.92931 20 5.28595 20 10C20 14.714 19.9996 17.0707 18.5352 18.5352C17.2387 19.8317 15.243 19.98 11.5312 19.9971V13.8721H13.8125L14.2461 11.042H11.5312V9.20508C11.5312 8.43082 11.91 7.67598 13.126 7.67578H14.3613V5.26562C14.3613 5.26562 13.2402 5.0752 12.1689 5.0752C9.93252 5.07534 8.4707 6.43086 8.4707 8.88477V11.042H5.98438V13.8721H8.4707V19.9971C4.75771 19.9801 2.76157 19.8319 1.46484 18.5352C0.000377656 17.0707 0 14.714 0 10C0 5.28595 0.000377656 2.92931 1.46484 1.46484C2.92931 0.000377656 5.28595 0 10 0Z" fill="white"/>
</g>
<defs>
<clipPath id="clip0_3698_4379">
<rect width="20" height="20" fill="white"/>
</clipPath>
</defs>
</svg>
