<svg width="60" height="60" viewBox="0 0 60 60" fill="none" xmlns="http://www.w3.org/2000/svg">
<g id="fi_15546602" clip-path="url(#clip0_1099_5536)">
<path id="Vector" d="M39.19 15C33.67 15 30 20.55 30 20.55C30 20.55 26.32 15 20.81 15C15.3 15 11 19.86 11 27.49C11 36.51 22.03 46.22 30 49C37.97 46.22 49 36.51 49 27.49C49 19.86 44.71 15 39.19 15Z" fill="#E50914"/>
<path id="Vector_2" opacity="0.5" d="M30 6C29.45 6 29 5.55 29 5V1C29 0.45 29.45 0 30 0C30.55 0 31 0.45 31 1V5C31 5.55 30.55 6 30 6Z" fill="#E50914"/>
<path id="Vector_3" opacity="0.5" d="M17.7467 9C17.3104 9 16.899 8.83532 16.6621 8.54256L14.1686 5.37709C13.8195 4.93795 14.0314 4.37988 14.6299 4.12371C15.2283 3.86755 15.9888 4.02307 16.3379 4.46222L18.8314 7.62769C19.1805 8.06683 18.9686 8.6249 18.3701 8.88107C18.1706 8.96341 17.9587 9 17.7467 9Z" fill="#E50914"/>
<path id="Vector_4" opacity="0.5" d="M8.0838 18C7.92816 18 7.77253 17.96 7.62605 17.87L4.45846 15.8704C4.01902 15.5905 3.87254 14.9806 4.11973 14.5007C4.37606 14.0208 4.93451 13.8608 5.37395 14.1308L8.54154 16.1304C8.98098 16.4103 9.12746 17.0202 8.88027 17.5001C8.70633 17.82 8.40422 18 8.0838 18Z" fill="#E50914"/>
<path id="Vector_5" opacity="0.5" d="M5 31H1C0.45 31 0 30.55 0 30C0 29.45 0.45 29 1 29H5C5.55 29 6 29.45 6 30C6 30.55 5.55 31 5 31Z" fill="#E50914"/>
<path id="Vector_6" opacity="0.5" d="M4.91878 46C4.59887 46 4.29725 45.7753 4.12359 45.3758C3.86767 44.7766 4.02305 44.0151 4.46177 43.6655L7.62422 41.1688C8.06294 40.8193 8.62049 41.0315 8.87641 41.6307C9.13233 42.2299 8.97695 42.9914 8.53823 43.341L5.37578 45.8377C5.22954 45.9501 5.07416 46 4.91878 46Z" fill="#E50914"/>
<path id="Vector_7" opacity="0.5" d="M15.2505 56C15.0381 56 14.8257 55.9634 14.6257 55.881C14.026 55.6246 13.826 55.0661 14.1634 54.6266L16.6624 51.4585C17.0123 51.019 17.7745 50.8725 18.3743 51.1197C18.974 51.3761 19.174 51.9346 18.8366 52.3741L16.3376 55.5422C16.1002 55.8352 15.6878 56 15.2505 56Z" fill="#E50914"/>
<path id="Vector_8" opacity="0.5" d="M30 60C29.45 60 29 59.55 29 59V55C29 54.45 29.45 54 30 54C30.55 54 31 54.45 31 55V59C31 59.55 30.55 60 30 60Z" fill="#E50914"/>
<path id="Vector_9" opacity="0.5" d="M44.7467 56C44.3104 56 43.899 55.8353 43.6621 55.5426L41.1686 52.3771C40.8195 51.938 41.0314 51.3799 41.6299 51.1237C42.2283 50.8675 42.9888 51.0231 43.3379 51.4622L45.8314 54.6277C46.1805 55.0668 45.9686 55.6249 45.3701 55.8811C45.1706 55.9634 44.9587 56 44.7467 56Z" fill="#E50914"/>
<path id="Vector_10" opacity="0.5" d="M55.0838 45C54.9282 45 54.7725 44.96 54.6261 44.87L51.4585 42.8704C51.019 42.5905 50.8725 41.9806 51.1197 41.5007C51.3761 41.0208 51.9345 40.8608 52.3739 41.1308L55.5415 43.1304C55.981 43.4103 56.1275 44.0202 55.8803 44.5001C55.7063 44.82 55.4042 45 55.0838 45Z" fill="#E50914"/>
<path id="Vector_11" opacity="0.5" d="M59 31H55C54.45 31 54 30.55 54 30C54 29.45 54.45 29 55 29H59C59.55 29 60 29.45 60 30C60 30.55 59.55 31 59 31Z" fill="#E50914"/>
<path id="Vector_12" opacity="0.5" d="M51.9188 19C51.5989 19 51.2973 18.7753 51.1236 18.3758C50.8677 17.7766 51.0231 17.0151 51.4618 16.6655L54.6242 14.1688C55.0629 13.8193 55.6205 14.0315 55.8764 14.6307C56.1323 15.2299 55.9769 15.9914 55.5382 16.341L52.3758 18.8377C52.2295 18.9501 52.0742 19 51.9188 19Z" fill="#E50914"/>
<path id="Vector_13" opacity="0.5" d="M42.2505 9C42.0381 9 41.8257 8.96338 41.6257 8.88097C41.026 8.6246 40.826 8.06607 41.1634 7.62657L43.6624 4.45852C44.0123 4.01903 44.7745 3.87253 45.3743 4.11974C45.974 4.37612 46.174 4.93465 45.8366 5.37414L43.3376 8.54219C43.1002 8.83519 42.6878 9 42.2505 9Z" fill="#E50914"/>
</g>
<defs>
<clipPath id="clip0_1099_5536">
<rect width="60" height="60" fill="white"/>
</clipPath>
</defs>
</svg>
