<svg width="17" height="16" viewBox="0 0 17 16" fill="none" xmlns="http://www.w3.org/2000/svg">
<g clip-path="url(#clip0_1099_5575)">
<path d="M16.5 8C16.5 11.9931 13.5744 15.3028 9.75 15.9028V10.3125H11.6141L11.9688 8H9.75V6.49937C9.75 5.86656 10.06 5.25 11.0538 5.25H12.0625V3.28125C12.0625 3.28125 11.1469 3.125 10.2716 3.125C8.44438 3.125 7.25 4.2325 7.25 6.2375V8H5.21875V10.3125H7.25V15.9028C3.42563 15.3028 0.5 11.9931 0.5 8C0.5 3.58187 4.08187 0 8.5 0C12.9181 0 16.5 3.58187 16.5 8Z" fill="#1877F2"/>
<path d="M11.6141 10.3125L11.9688 8H9.75V6.49934C9.75 5.86669 10.0599 5.25 11.0537 5.25H12.0625V3.28125C12.0625 3.28125 11.147 3.125 10.2717 3.125C8.44434 3.125 7.25 4.2325 7.25 6.2375V8H5.21875V10.3125H7.25V15.9028C7.65731 15.9667 8.07475 16 8.5 16C8.92525 16 9.34269 15.9667 9.75 15.9028V10.3125H11.6141Z" fill="white"/>
</g>
<defs>
<clipPath id="clip0_1099_5575">
<rect width="16" height="16" fill="white" transform="translate(0.5)"/>
</clipPath>
</defs>
</svg>
