<svg width="17" height="16" viewBox="0 0 17 16" fill="none" xmlns="http://www.w3.org/2000/svg">
<path d="M15.54 8.16666C15.54 7.64666 15.4933 7.14666 15.4067 6.66666H8.5V9.50332H12.4467C12.2767 10.42 11.76 11.1967 10.9833 11.7167V13.5567H13.3533C14.74 12.28 15.54 10.4 15.54 8.16666Z" fill="#4285F4"/>
<path d="M8.49999 15.3333C10.48 15.3333 12.14 14.6767 13.3533 13.5567L10.9833 11.7167C10.3267 12.1567 9.48665 12.4167 8.49999 12.4167C6.58999 12.4167 4.97332 11.1267 4.39665 9.39334H1.94666V11.2933C3.15332 13.69 5.63332 15.3333 8.49999 15.3333Z" fill="#34A853"/>
<path d="M4.39663 9.39333C4.24996 8.95333 4.16663 8.48333 4.16663 8C4.16663 7.51667 4.24996 7.04667 4.39663 6.60667V4.70667H1.94663C1.43329 5.72857 1.16617 6.85641 1.16663 8C1.16663 9.18333 1.44996 10.3033 1.94663 11.2933L4.39663 9.39333Z" fill="#FBBC05"/>
<path d="M8.49999 3.58332C9.57666 3.58332 10.5433 3.95332 11.3033 4.67999L13.4067 2.57666C12.1367 1.39332 10.4767 0.666656 8.49999 0.666656C5.63332 0.666656 3.15332 2.30999 1.94666 4.70666L4.39666 6.60666C4.97332 4.87332 6.58999 3.58332 8.49999 3.58332Z" fill="#EA4335"/>
</svg>
