<svg width="20" height="20" viewBox="0 0 20 20" fill="none" xmlns="http://www.w3.org/2000/svg">
<g clip-path="url(#clip0_3698_4383)">
<path d="M10 0C14.714 0 17.0707 0.000377656 18.5352 1.46484C19.9996 2.92931 20 5.28595 20 10C20 14.714 19.9996 17.0707 18.5352 18.5352C17.0707 19.9996 14.714 20 10 20C5.28595 20 2.92931 19.9996 1.46484 18.5352C0.000377656 17.0707 0 14.714 0 10C0 5.28595 0.000377656 2.92931 1.46484 1.46484C2.92931 0.000377656 5.28595 0 10 0ZM10 4.16699C8.41663 4.16699 8.21751 4.17385 7.5957 4.20215C6.97486 4.23058 6.55052 4.32847 6.17969 4.47266C5.79611 4.62161 5.47064 4.82129 5.14648 5.14551C4.82201 5.46974 4.62214 5.79518 4.47266 6.17871C4.32804 6.54974 4.2301 6.97396 4.20215 7.59473C4.17432 8.21686 4.16699 8.41586 4.16699 10C4.16699 11.5839 4.17397 11.7824 4.20215 12.4043C4.2307 13.0252 4.32857 13.4495 4.47266 13.8203C4.62173 14.2039 4.82129 14.5294 5.14551 14.8535C5.46963 15.178 5.79529 15.3784 6.17871 15.5273C6.54983 15.6716 6.97391 15.7694 7.59473 15.7979C8.21696 15.8262 8.41587 15.833 10 15.833C11.5839 15.833 11.7823 15.8262 12.4043 15.7979C13.0253 15.7694 13.4501 15.6716 13.8213 15.5273C14.2048 15.3784 14.5294 15.178 14.8535 14.8535C15.178 14.5293 15.3779 14.2039 15.5273 13.8203C15.6706 13.4495 15.7687 13.0256 15.7979 12.4053C15.8258 11.7831 15.833 11.5842 15.833 10C15.833 8.41576 15.8258 8.21695 15.7979 7.59473C15.7687 6.97372 15.6707 6.54961 15.5273 6.17871C15.3779 5.79509 15.178 5.46972 14.8535 5.14551C14.5292 4.82123 14.2051 4.62149 13.8213 4.47266C13.4494 4.3284 13.0243 4.23059 12.4033 4.20215C11.7816 4.17386 11.5832 4.167 10 4.16699ZM9.47754 5.21777C9.63278 5.21753 9.80641 5.21777 10.001 5.21777C11.5578 5.21777 11.7427 5.22304 12.3574 5.25098C12.9258 5.27697 13.2348 5.37233 13.4404 5.45215C13.7127 5.55788 13.9073 5.6845 14.1113 5.88867C14.3154 6.09279 14.4419 6.28741 14.5479 6.55957C14.6277 6.76495 14.7231 7.074 14.749 7.64258C14.777 8.25722 14.7822 8.44256 14.7822 9.99902C14.7822 11.5555 14.777 11.7406 14.749 12.3555C14.723 12.9236 14.6276 13.2322 14.5479 13.4375C14.4421 13.7097 14.3155 13.9044 14.1113 14.1084C13.9072 14.3125 13.7127 14.4382 13.4404 14.5439C13.235 14.6241 12.926 14.7191 12.3574 14.7451C11.7428 14.7731 11.5578 14.7793 10.001 14.7793C8.44349 14.7793 8.25835 14.7731 7.64355 14.7451C7.07502 14.7189 6.7663 14.6238 6.56055 14.5439C6.28832 14.4382 6.09382 14.3116 5.88965 14.1074C5.68557 13.9033 5.55907 13.7097 5.45312 13.4375C5.37328 13.2321 5.27784 12.9232 5.25195 12.3545C5.22401 11.7396 5.21875 11.5547 5.21875 9.99707C5.21875 8.43945 5.224 8.25554 5.25195 7.64062C5.27797 7.07198 5.37329 6.76322 5.45312 6.55762C5.55884 6.2855 5.68553 6.09084 5.88965 5.88672C6.09373 5.68269 6.28843 5.55613 6.56055 5.4502C6.76617 5.37002 7.07514 5.27514 7.64355 5.24902C8.18154 5.22472 8.39047 5.21801 9.47754 5.2168V5.21777ZM10.001 7.00391C8.3466 7.00391 7.00488 8.34564 7.00488 10C7.00488 11.6544 8.3466 12.9951 10.001 12.9951C11.6552 12.9949 12.9961 11.6542 12.9961 10C12.9961 8.34579 11.6552 7.00414 10.001 7.00391ZM10.001 8.05566C11.0746 8.0559 11.9453 8.9262 11.9453 10C11.9453 11.0737 11.0746 11.9441 10.001 11.9443C8.92702 11.9443 8.05566 11.0738 8.05566 10C8.05566 8.92606 8.92702 8.05566 10.001 8.05566ZM13.1143 6.18652C12.728 6.18658 12.4143 6.49941 12.4141 6.88574C12.4141 7.27216 12.7278 7.58588 13.1143 7.58594C13.5007 7.58594 13.8145 7.2722 13.8145 6.88574C13.8142 6.4995 13.5006 6.18652 13.1143 6.18652Z" fill="white"/>
</g>
<defs>
<clipPath id="clip0_3698_4383">
<rect width="20" height="20" fill="white"/>
</clipPath>
</defs>
</svg>
