<svg width="18" height="18" viewBox="0 0 18 18" fill="none" xmlns="http://www.w3.org/2000/svg">
<path d="M11.6024 14.8588H14.5907C14.7376 14.8584 14.8566 14.7394 14.8569 14.5926V3.40843C14.8566 3.26155 14.7376 3.14255 14.5907 3.14221H11.6024C11.0631 3.14221 10.626 2.70507 10.626 2.16583C10.626 1.6266 11.0631 1.18945 11.6024 1.18945H14.5907C15.8156 1.19089 16.8083 2.18353 16.8097 3.40843V14.5925C16.8083 15.8175 15.8156 16.8101 14.5907 16.8115H11.6024C11.0631 16.8115 10.626 16.3744 10.626 15.8352C10.626 15.2959 11.0631 14.8588 11.6024 14.8588Z" fill="white"/>
<path d="M2.04561 6.9299L4.57248 4.40498C4.95391 4.02373 5.57217 4.02388 5.95342 4.40531C6.33466 4.78674 6.33451 5.405 5.95308 5.78625L3.73215 8.00654L12.5788 8.02475C13.118 8.02475 13.5552 8.4619 13.5552 9.00113C13.5552 9.54037 13.118 9.97751 12.5788 9.97751L3.69633 9.96125L5.95308 12.218C6.3205 12.6127 6.29838 13.2305 5.90371 13.5979C5.52857 13.9471 4.94729 13.9469 4.57248 13.5973L2.04756 11.0724C0.903637 9.92848 0.903637 8.07385 2.04753 6.92996L2.04756 6.92993L2.04561 6.9299Z" fill="white"/>
</svg>
