<svg width="12" height="12" viewBox="0 0 12 12" fill="none" xmlns="http://www.w3.org/2000/svg">
<path fill-rule="evenodd" clip-rule="evenodd" d="M0 3.31818C0 2.03741 1.03803 1 2.31818 1H4.34636C4.62251 1 4.84636 1.22386 4.84636 1.5C4.84636 1.77614 4.62251 2 4.34636 2H2.31818C1.59015 2 1 2.58986 1 3.31818V9.6818C1 10.4101 1.59015 11 2.31818 11H8.6818C9.4098 11 10 10.4101 10 9.6818V7.65455C10 7.3784 10.2239 7.15455 10.5 7.15455C10.7761 7.15455 11 7.3784 11 7.65455V9.6818C11 10.9626 9.962 12 8.6818 12H2.31818C1.03803 12 0 10.9626 0 9.6818V3.31818Z" fill="#E50914"/>
<path fill-rule="evenodd" clip-rule="evenodd" d="M7 0.5C7 0.22386 7.22386 0 7.5 0H11.5C11.7761 0 12 0.22386 12 0.5V4.5C12 4.77614 11.7761 5 11.5 5C11.2239 5 11 4.77614 11 4.5V1H7.5C7.22386 1 7 0.77614 7 0.5Z" fill="#E50914"/>
<path fill-rule="evenodd" clip-rule="evenodd" d="M11.4891 0.527025C11.6841 0.722605 11.6836 1.03919 11.488 1.23414L6.85298 5.85414C6.6574 6.04908 6.34082 6.04857 6.14587 5.85299C5.95093 5.65741 5.95144 5.34083 6.14702 5.14588L10.782 0.525876C10.9776 0.330936 11.2942 0.331445 11.4891 0.527025Z" fill="#E50914"/>
</svg>
