<svg width="12" height="12" viewBox="0 0 12 12" fill="none" xmlns="http://www.w3.org/2000/svg">
<path d="M11.0182 5.73625L9.52092 5.30837C8.84664 5.11827 8.23243 4.75832 7.73706 4.26294C7.24169 3.76757 6.88173 3.15336 6.69164 2.47909L6.26376 0.981781C6.24224 0.929395 6.20563 0.884589 6.15859 0.853056C6.11155 0.821524 6.05619 0.804688 5.99956 0.804688C5.94293 0.804688 5.88757 0.821524 5.84053 0.853056C5.79349 0.884589 5.75688 0.929395 5.73536 0.981781L5.30748 2.47909C5.11738 3.15336 4.75743 3.76757 4.26206 4.26294C3.76669 4.75832 3.15248 5.11827 2.4782 5.30837L0.980895 5.73625C0.923404 5.75257 0.872804 5.78719 0.836774 5.83487C0.800744 5.88255 0.78125 5.94068 0.78125 6.00045C0.78125 6.06021 0.800744 6.11834 0.836774 6.16602C0.872804 6.2137 0.923404 6.24833 0.980895 6.26464L2.4782 6.69252C3.15248 6.88262 3.76669 7.24258 4.26206 7.73795C4.75743 8.23332 5.11738 8.84753 5.30748 9.52181L5.73536 11.0191C5.75168 11.0766 5.78631 11.1272 5.83399 11.1632C5.88167 11.1993 5.9398 11.2188 5.99956 11.2188C6.05932 11.2188 6.11745 11.1993 6.16513 11.1632C6.21281 11.1272 6.24744 11.0766 6.26376 11.0191L6.69164 9.52181C6.88173 8.84753 7.24169 8.23332 7.73706 7.73795C8.23243 7.24258 8.84664 6.88262 9.52092 6.69252L11.0182 6.26464C11.0757 6.24833 11.1263 6.2137 11.1623 6.16602C11.1984 6.11834 11.2179 6.06021 11.2179 6.00045C11.2179 5.94068 11.1984 5.88255 11.1623 5.83487C11.1263 5.78719 11.0757 5.75257 11.0182 5.73625Z" fill="#E50914"/>
</svg>
