<svg width="18" height="18" viewBox="0 0 18 18" fill="none" xmlns="http://www.w3.org/2000/svg">
<g clip-path="url(#clip0_1732_2659)">
<path d="M4.26186e-07 12L4.21924e-07 11.9025C0.00318927 11.5668 0.11776 11.2418 0.325725 10.9783C0.533689 10.7148 0.82327 10.5278 1.149 10.4467C1.46613 10.3599 1.74594 10.1713 1.94539 9.90989C2.14484 9.64849 2.25288 9.3288 2.25288 9C2.25288 8.6712 2.14484 8.35151 1.94539 8.09011C1.74594 7.82871 1.46613 7.64008 1.149 7.55325C0.82327 7.47217 0.533689 7.28521 0.325725 7.02173C0.11776 6.75824 0.00318904 6.43315 1.6818e-07 6.0975L1.63918e-07 6C0.00119101 5.0058 0.396662 4.05267 1.09966 3.34966C1.80267 2.64666 2.7558 2.25119 3.75 2.25L15.75 2.25C16.3467 2.25 16.919 2.48705 17.341 2.90901C17.7629 3.33097 18 3.90326 18 4.5L18 6.0975C17.9968 6.43315 17.8822 6.75824 17.6743 7.02173C17.4663 7.28521 17.1767 7.47217 16.851 7.55325C16.5339 7.64008 16.2541 7.8287 16.0546 8.0901C15.8552 8.35151 15.7471 8.6712 15.7471 9C15.7471 9.3288 15.8552 9.64849 16.0546 9.90989C16.2541 10.1713 16.5339 10.3599 16.851 10.4467C17.1767 10.5278 17.4663 10.7148 17.6743 10.9783C17.8822 11.2418 17.9968 11.5668 18 11.9025L18 13.5C18 14.0967 17.7629 14.669 17.341 15.091C16.919 15.5129 16.3467 15.75 15.75 15.75L3.75 15.75C2.7558 15.7488 1.80267 15.3533 1.09967 14.6503C0.396662 13.9473 0.00119136 12.9942 4.26186e-07 12ZM16.5 13.5L16.4528 11.8927C15.8163 11.7166 15.2558 11.3354 14.8581 10.8082C14.4604 10.281 14.2477 9.63734 14.2531 8.977C14.2585 8.31665 14.4816 7.67654 14.8879 7.15591C15.2941 6.63529 15.8608 6.26325 16.5 6.0975L16.5 4.5C16.5 4.30109 16.421 4.11032 16.2803 3.96967C16.1397 3.82902 15.9489 3.75 15.75 3.75L12.75 3.75L12.75 5.25C12.75 5.44891 12.671 5.63968 12.5303 5.78033C12.3897 5.92098 12.1989 6 12 6C11.8011 6 11.6103 5.92098 11.4697 5.78033C11.329 5.63968 11.25 5.44891 11.25 5.25L11.25 3.75L3.75 3.75C3.15326 3.75 2.58097 3.98705 2.15901 4.40901C1.73705 4.83097 1.5 5.40326 1.5 6L1.54725 6.10725C2.17982 6.28292 2.73753 6.66075 3.13526 7.18306C3.53299 7.70538 3.74889 8.34349 3.75 9C3.74434 9.66537 3.52148 10.3107 3.11532 10.8377C2.70917 11.3648 2.14196 11.7447 1.5 11.9197L1.5 12C1.5 12.5967 1.73705 13.169 2.15901 13.591C2.58097 14.0129 3.15326 14.25 3.75 14.25L11.25 14.25L11.25 12.75C11.25 12.5511 11.329 12.3603 11.4697 12.2197C11.6103 12.079 11.8011 12 12 12C12.1989 12 12.3897 12.079 12.5303 12.2197C12.671 12.3603 12.75 12.5511 12.75 12.75L12.75 14.25L15.75 14.25C15.9489 14.25 16.1397 14.171 16.2803 14.0303C16.421 13.8897 16.5 13.6989 16.5 13.5Z" fill="white"/>
<path d="M11.25 9.75L11.25 8.25C11.25 8.05109 11.329 7.86032 11.4697 7.71967C11.6103 7.57902 11.8011 7.5 12 7.5C12.1989 7.5 12.3897 7.57902 12.5303 7.71967C12.671 7.86032 12.75 8.05109 12.75 8.25L12.75 9.75C12.75 9.94891 12.671 10.1397 12.5303 10.2803C12.3897 10.421 12.1989 10.5 12 10.5C11.8011 10.5 11.6103 10.421 11.4697 10.2803C11.329 10.1397 11.25 9.94891 11.25 9.75Z" fill="white"/>
</g>
<defs>
<clipPath id="clip0_1732_2659">
<rect width="18" height="18" fill="white"/>
</clipPath>
</defs>
</svg>
