<svg width="16" height="16" viewBox="0 0 16 16" fill="none" xmlns="http://www.w3.org/2000/svg">
<path fill-rule="evenodd" clip-rule="evenodd" d="M2 5.31818C2 4.03741 3.03803 3 4.31818 3H6.34636C6.62251 3 6.84636 3.22386 6.84636 3.5C6.84636 3.77614 6.62251 4 6.34636 4H4.31818C3.59015 4 3 4.58986 3 5.31818V11.6818C3 12.4101 3.59015 13 4.31818 13H10.6818C11.4098 13 12 12.4101 12 11.6818V9.65455C12 9.3784 12.2239 9.15455 12.5 9.15455C12.7761 9.15455 13 9.3784 13 9.65455V11.6818C13 12.9626 11.962 14 10.6818 14H4.31818C3.03803 14 2 12.9626 2 11.6818V5.31818Z" fill="#E50914"/>
<path fill-rule="evenodd" clip-rule="evenodd" d="M9 2.5C9 2.22386 9.22386 2 9.5 2H13.5C13.7761 2 14 2.22386 14 2.5V6.5C14 6.77614 13.7761 7 13.5 7C13.2239 7 13 6.77614 13 6.5V3H9.5C9.22386 3 9 2.77614 9 2.5Z" fill="#E50914"/>
<path fill-rule="evenodd" clip-rule="evenodd" d="M13.4891 2.5269C13.6841 2.72248 13.6836 3.03906 13.488 3.23401L8.85298 7.85401C8.6574 8.04895 8.34082 8.04844 8.14587 7.85286C7.95093 7.65728 7.95144 7.3407 8.14702 7.14575L12.782 2.52575C12.9776 2.33081 13.2942 2.33132 13.4891 2.5269Z" fill="#E50914"/>
</svg>
