<svg width="18" height="18" viewBox="0 0 18 18" fill="none" xmlns="http://www.w3.org/2000/svg">
<path d="M14.6129 17.642H3.3892C2.99267 17.6409 2.60024 17.5616 2.2344 17.4087C1.86856 17.2557 1.53649 17.0321 1.25722 16.7506C0.977953 16.4691 0.756968 16.1352 0.606929 15.7682C0.45689 15.4011 0.380745 15.0081 0.382855 14.6116V4.99128C0.387093 4.19673 0.705701 3.43617 1.26904 2.87584C1.83238 2.3155 2.59463 2.00097 3.3892 2.00098H14.6129C15.4074 2.00097 16.1697 2.3155 16.733 2.87584C17.2964 3.43617 17.615 4.19673 17.6192 4.99128V14.6116C17.6213 15.0081 17.5452 15.4011 17.3951 15.7682C17.2451 16.1352 17.0241 16.4691 16.7448 16.7506C16.4656 17.0321 16.1335 17.2557 15.7677 17.4087C15.4018 17.5616 15.0094 17.6409 14.6129 17.642ZM3.3892 3.20351C2.91356 3.20349 2.45717 3.39133 2.11935 3.72615C1.78153 4.06097 1.58962 4.51567 1.58539 4.99128V14.6116C1.58221 14.8505 1.62651 15.0876 1.71573 15.3092C1.80496 15.5309 1.93732 15.7326 2.10513 15.9026C2.27295 16.0727 2.47288 16.2077 2.69331 16.2999C2.91374 16.392 3.15028 16.4394 3.3892 16.4394H14.6129C14.8518 16.4394 15.0883 16.392 15.3088 16.2999C15.5292 16.2077 15.7291 16.0727 15.8969 15.9026C16.0647 15.7326 16.1971 15.5309 16.2863 15.3092C16.3756 15.0876 16.4199 14.8505 16.4167 14.6116V4.99128C16.4124 4.51567 16.2205 4.06097 15.8827 3.72615C15.5449 3.39133 15.0885 3.20349 14.6129 3.20351H3.3892Z" fill="#D9D9D9"/>
<path d="M14.6129 17.6427H3.3892C2.99267 17.6416 2.60024 17.5623 2.2344 17.4094C1.86856 17.2564 1.53649 17.0328 1.25722 16.7513C0.977953 16.4698 0.756968 16.1359 0.606929 15.7689C0.45689 15.4018 0.380745 15.0088 0.382855 14.6123V6.98017C0.382855 6.82071 0.446203 6.66777 0.558963 6.55501C0.671722 6.44225 0.824657 6.37891 0.984123 6.37891H17.0179C17.1774 6.37891 17.3303 6.44225 17.4431 6.55501C17.5559 6.66777 17.6192 6.82071 17.6192 6.98017V14.6123C17.6213 15.0088 17.5452 15.4018 17.3951 15.7689C17.2451 16.1359 17.0241 16.4698 16.7448 16.7513C16.4656 17.0328 16.1335 17.2564 15.7677 17.4094C15.4018 17.5623 15.0094 17.6416 14.6129 17.6427ZM1.58539 7.58144V14.6123C1.58221 14.8512 1.62651 15.0883 1.71573 15.3099C1.80496 15.5316 1.93732 15.7333 2.10513 15.9033C2.27295 16.0734 2.47288 16.2084 2.69331 16.3006C2.91374 16.3927 3.15028 16.4401 3.3892 16.4401H14.6129C14.8518 16.4401 15.0883 16.3927 15.3088 16.3006C15.5292 16.2084 15.7291 16.0734 15.8969 15.9033C16.0647 15.7333 16.1971 15.5316 16.2863 15.3099C16.3756 15.0883 16.4199 14.8512 16.4167 14.6123V7.55739L1.58539 7.58144Z" fill="#D9D9D9"/>
<path d="M4.59346 4.7751C4.43734 4.77317 4.28791 4.71138 4.17603 4.60248C4.06415 4.49357 3.99834 4.34588 3.99219 4.18987V0.983104C3.99219 0.823638 4.05554 0.670703 4.16829 0.557943C4.28105 0.445184 4.43399 0.381836 4.59346 0.381836C4.75292 0.381836 4.90586 0.445184 5.01862 0.557943C5.13138 0.670703 5.19472 0.823638 5.19472 0.983104V4.18987C5.18857 4.34588 5.12276 4.49357 5.01088 4.60248C4.899 4.71138 4.74958 4.77317 4.59346 4.7751Z" fill="#D9D9D9"/>
<path d="M8.99971 4.7751C8.84359 4.77317 8.69416 4.71138 8.58228 4.60248C8.4704 4.49357 8.40459 4.34588 8.39844 4.18987V0.983104C8.39844 0.823638 8.46179 0.670703 8.57455 0.557943C8.6873 0.445184 8.84024 0.381836 8.99971 0.381836C9.15917 0.381836 9.31211 0.445184 9.42487 0.557943C9.53763 0.670703 9.60097 0.823638 9.60097 0.983104V4.18987C9.59482 4.34588 9.52901 4.49357 9.41713 4.60248C9.30525 4.71138 9.15583 4.77317 8.99971 4.7751Z" fill="#D9D9D9"/>
<path d="M13.4099 4.7751C13.2537 4.77317 13.1043 4.71138 12.9924 4.60248C12.8806 4.49357 12.8147 4.34588 12.8086 4.18987V0.983104C12.8086 0.823638 12.8719 0.670703 12.9847 0.557943C13.0975 0.445184 13.2504 0.381836 13.4099 0.381836C13.5693 0.381836 13.7223 0.445184 13.835 0.557943C13.9478 0.670703 14.0111 0.823638 14.0111 0.983104V4.18987C14.005 4.34588 13.9392 4.49357 13.8273 4.60248C13.7154 4.71138 13.566 4.77317 13.4099 4.7751Z" fill="#D9D9D9"/>
<path d="M4.9943 11.1888C5.54775 11.1888 5.99641 10.7401 5.99641 10.1867C5.99641 9.63323 5.54775 9.18457 4.9943 9.18457C4.44085 9.18457 3.99219 9.63323 3.99219 10.1867C3.99219 10.7401 4.44085 11.1888 4.9943 11.1888Z" fill="#D9D9D9"/>
<path d="M9.00211 11.1888C9.55557 11.1888 10.0042 10.7401 10.0042 10.1867C10.0042 9.63323 9.55557 9.18457 9.00211 9.18457C8.44866 9.18457 8 9.63323 8 10.1867C8 10.7401 8.44866 11.1888 9.00211 11.1888Z" fill="#D9D9D9"/>
<path d="M13.0099 11.1888C13.5634 11.1888 14.012 10.7401 14.012 10.1867C14.012 9.63323 13.5634 9.18457 13.0099 9.18457C12.4565 9.18457 12.0078 9.63323 12.0078 10.1867C12.0078 10.7401 12.4565 11.1888 13.0099 11.1888Z" fill="#D9D9D9"/>
<path d="M4.9943 14.3958C5.54775 14.3958 5.99641 13.9472 5.99641 13.3937C5.99641 12.8403 5.54775 12.3916 4.9943 12.3916C4.44085 12.3916 3.99219 12.8403 3.99219 13.3937C3.99219 13.9472 4.44085 14.3958 4.9943 14.3958Z" fill="#D9D9D9"/>
<path d="M9.00211 14.3958C9.55557 14.3958 10.0042 13.9472 10.0042 13.3937C10.0042 12.8403 9.55557 12.3916 9.00211 12.3916C8.44866 12.3916 8 12.8403 8 13.3937C8 13.9472 8.44866 14.3958 9.00211 14.3958Z" fill="#D9D9D9"/>
<path d="M13.0099 14.3958C13.5634 14.3958 14.012 13.9472 14.012 13.3937C14.012 12.8403 13.5634 12.3916 13.0099 12.3916C12.4565 12.3916 12.0078 12.8403 12.0078 13.3937C12.0078 13.9472 12.4565 14.3958 13.0099 14.3958Z" fill="#D9D9D9"/>
</svg>
