<svg width="9" height="5" viewBox="0 0 9 5" fill="none" xmlns="http://www.w3.org/2000/svg">
<path fill-rule="evenodd" clip-rule="evenodd" d="M0.176448 0.576221C0.288949 0.46386 0.441448 0.400748 0.600449 0.400748C0.759449 0.400748 0.911949 0.46386 1.02445 0.576221L4.00045 3.55222L6.97645 0.576221C7.03138 0.517271 7.09762 0.469989 7.17122 0.437195C7.24482 0.404402 7.32427 0.386769 7.40483 0.385347C7.48539 0.383926 7.56542 0.398745 7.64013 0.428922C7.71484 0.459099 7.7827 0.504015 7.83968 0.56099C7.89665 0.617965 7.94157 0.685832 7.97175 0.760542C8.00192 0.835253 8.01674 0.915276 8.01532 0.995838C8.0139 1.0764 7.99627 1.15585 7.96347 1.22945C7.93068 1.30305 7.8834 1.36929 7.82445 1.42422L4.42445 4.82422C4.31195 4.93658 4.15945 4.99969 4.00045 4.99969C3.84145 4.99969 3.68895 4.93658 3.57645 4.82422L0.176448 1.42422C0.0640881 1.31172 0.000976563 1.15922 0.000976562 1.00022C0.000976563 0.84122 0.0640881 0.688721 0.176448 0.576221Z" fill="#D9D9D9"/>
</svg>
