<svg width="20" height="20" viewBox="0 0 20 20" fill="none" xmlns="http://www.w3.org/2000/svg">
<path d="M16.9679 1.48299C15.8602 1.17152 14.397 1 12.8477 1C11.2983 1 9.83507 1.17152 8.72737 1.48299C7.37894 1.86229 6.69531 2.40941 6.69531 3.10938V6.27344C6.69531 6.42491 6.72745 6.56911 6.79131 6.70616C3.56627 6.89375 1 9.57648 1 12.8477C1 16.2401 3.7599 19 7.15234 19C8.53223 19 9.80746 18.5434 10.8348 17.7732C11.4783 17.8405 12.1541 17.875 12.8477 17.875C14.397 17.875 15.8602 17.7035 16.9679 17.392C18.3164 17.0127 19 16.4656 19 15.7656V3.10938C19 2.40941 18.3164 1.86229 16.9679 1.48299ZM13.1653 11.5444C14.5961 11.5226 15.9363 11.3539 16.9679 11.0639C17.3461 10.9575 17.672 10.8378 17.9453 10.7053V12.5899C17.9023 12.6846 17.5608 12.9901 16.5006 13.2613C15.6043 13.4906 14.4632 13.6267 13.2521 13.6517C13.2867 13.3885 13.3047 13.1201 13.3047 12.8477C13.3047 12.4005 13.2563 11.9646 13.1653 11.5444ZM16.5006 10.0972C15.5051 10.352 14.2078 10.4922 12.8477 10.4922C12.8437 10.4922 12.8396 10.4921 12.8356 10.4921C12.4906 9.66299 11.9694 8.92513 11.3189 8.32527C11.8118 8.36317 12.3248 8.38281 12.8477 8.38281C14.397 8.38281 15.8602 8.21129 16.9679 7.89983C17.3461 7.7934 17.672 7.67378 17.9453 7.54126V9.42583C17.9023 9.52058 17.5608 9.826 16.5006 10.0972ZM16.5006 6.93317C15.5051 7.18791 14.2078 7.32812 12.8477 7.32812C11.4875 7.32812 10.1902 7.18791 9.1947 6.93317C8.13452 6.66194 7.79298 6.35652 7.75 6.26176V4.3772C8.02328 4.50972 8.34917 4.62933 8.72737 4.73576C9.83507 5.04723 11.2983 5.21875 12.8477 5.21875C14.397 5.21875 15.8602 5.04723 16.9679 4.73576C17.3461 4.62933 17.672 4.50972 17.9453 4.3772V6.26176C17.9023 6.35652 17.5608 6.66194 16.5006 6.93317ZM9.1947 2.44965C10.1902 2.1949 11.4875 2.05469 12.8477 2.05469C14.2078 2.05469 15.5051 2.1949 16.5006 2.44965C17.5206 2.71057 17.8753 3.00322 17.9391 3.10938C17.8753 3.21553 17.5206 3.50818 16.5006 3.7691C15.5051 4.02385 14.2078 4.16406 12.8477 4.16406C11.4875 4.16406 10.1902 4.02385 9.1947 3.7691C8.17476 3.50818 7.82004 3.21553 7.75618 3.10938C7.82004 3.00322 8.17476 2.71057 9.1947 2.44965ZM2.05469 12.8477C2.05469 10.0368 4.34149 7.75 7.15234 7.75C9.9632 7.75 12.25 10.0368 12.25 12.8477C12.25 15.6585 9.9632 17.9453 7.15234 17.9453C4.34149 17.9453 2.05469 15.6585 2.05469 12.8477ZM16.5006 16.4254C15.5051 16.6801 14.2078 16.8203 12.8477 16.8203C12.5156 16.8203 12.1883 16.8117 11.8671 16.7953C12.3762 16.1883 12.7705 15.4822 13.0163 14.7103C14.503 14.6982 15.9006 14.528 16.9679 14.228C17.3461 14.1215 17.672 14.0019 17.9453 13.8694V15.754C17.9023 15.8487 17.5608 16.1541 16.5006 16.4254Z" fill="#D9D9D9"/>
<path d="M7.67969 10.2109H6.625C6.625 10.8506 6.10452 11.3711 5.46484 11.3711V12.4258C5.89001 12.4258 6.28731 12.3051 6.625 12.0966V14.6055H5.46484V15.6602H8.83984V14.6055H7.67969V10.2109Z" fill="#D9D9D9"/>
</svg>
