<svg width="9" height="5" viewBox="0 0 9 5" fill="none" xmlns="http://www.w3.org/2000/svg">
<path fill-rule="evenodd" clip-rule="evenodd" d="M0.675991 0.575976C0.788491 0.463616 0.94099 0.400504 1.09999 0.400504C1.25899 0.400504 1.41149 0.463616 1.52399 0.575976L4.49999 3.55198L7.47599 0.575976C7.53092 0.517027 7.59716 0.469745 7.67076 0.436951C7.74436 0.404158 7.82381 0.386525 7.90437 0.385103C7.98494 0.383682 8.06496 0.398501 8.13967 0.428678C8.21438 0.458855 8.28225 0.503771 8.33922 0.560746C8.3962 0.617721 8.44111 0.685588 8.47129 0.760298C8.50147 0.835009 8.51629 0.915032 8.51486 0.995594C8.51344 1.07616 8.49581 1.15561 8.46302 1.22921C8.43022 1.30281 8.38294 1.36905 8.32399 1.42398L4.92399 4.82398C4.81149 4.93634 4.65899 4.99945 4.49999 4.99945C4.34099 4.99945 4.18849 4.93634 4.07599 4.82398L0.675991 1.42398C0.56363 1.31148 0.500519 1.15898 0.500519 0.999976C0.500519 0.840976 0.56363 0.688477 0.675991 0.575976Z" fill="white"/>
</svg>
