<svg width="18" height="18" viewBox="0 0 18 18" fill="none" xmlns="http://www.w3.org/2000/svg">
<path d="M8 16C6.41775 16 4.87103 15.5308 3.55544 14.6518C2.23985 13.7727 1.21447 12.5233 0.608967 11.0615C0.00346625 9.59966 -0.15496 7.99113 0.153721 6.43928C0.462403 4.88743 1.22433 3.46197 2.34315 2.34315C3.46197 1.22433 4.88743 0.462403 6.43928 0.153721C7.99113 -0.15496 9.59966 0.00346625 11.0615 0.608967C12.5233 1.21447 13.7727 2.23985 14.6518 3.55544C15.5308 4.87103 16 6.41775 16 8C15.9976 10.121 15.154 12.1545 13.6542 13.6542C12.1545 15.154 10.121 15.9976 8 16ZM8 2C6.81332 2 5.65328 2.3519 4.66658 3.01119C3.67989 3.67047 2.91085 4.60755 2.45673 5.7039C2.0026 6.80026 1.88378 8.00666 2.11529 9.17055C2.3468 10.3344 2.91825 11.4035 3.75736 12.2426C4.59648 13.0818 5.66558 13.6532 6.82946 13.8847C7.99335 14.1162 9.19975 13.9974 10.2961 13.5433C11.3925 13.0892 12.3295 12.3201 12.9888 11.3334C13.6481 10.3467 14 9.18669 14 8C13.9984 6.40919 13.3658 4.88399 12.2409 3.75912C11.116 2.63424 9.59082 2.00159 8 2Z" fill="white"/>
<path d="M17 18C16.7348 17.9999 16.4805 17.8946 16.293 17.707L12.293 13.707C12.1108 13.5184 12.0101 13.2658 12.0123 13.0036C12.0146 12.7414 12.1198 12.4906 12.3052 12.3052C12.4906 12.1198 12.7414 12.0146 13.0036 12.0123C13.2658 12.0101 13.5184 12.1108 13.707 12.293L17.707 16.293C17.8468 16.4329 17.942 16.611 17.9806 16.805C18.0192 16.9989 17.9994 17.2 17.9237 17.3827C17.848 17.5654 17.7199 17.7215 17.5555 17.8314C17.3911 17.9413 17.1978 18 17 18Z" fill="white"/>
</svg>
